{
  "accessors": [
    {
      "bufferView": 2,
      "componentType": 5126,
      "count": 1910,
      "max": [
        0.2851201593875885,
        0.04558761790394783,
        0.06278166174888611
      ],
      "min": [
        -0.2851201891899109,
        -0.15539555251598358,
        0.006986325141042471
      ],
      "type": "VEC3"
    },
    {
      "bufferView": 2,
      "byteOffset": 22920,
      "componentType": 5126,
      "count": 1910,
      "max": [
        0.9998432993888855,
        0.9999672174453735,
        0.9999469518661499
      ],
      "min": [
        -0.9998433589935303,
        -0.9999971985816956,
        -0.9995113015174866
      ],
      "type": "VEC3"
    },
    {
      "bufferView": 1,
      "componentType": 5126,
      "count": 1910,
      "max": [
        0.0,
        0.0
      ],
      "min": [
        0.0,
        0.0
      ],
      "type": "VEC2"
    },
    {
      "bufferView": 0,
      "componentType": 5125,
      "count": 11472,
      "type": "SCALAR"
    },
    {
      "bufferView": 2,
      "byteOffset": 45840,
      "componentType": 5126,
      "count": 1519,
      "max": [
        7.265573024749756,
        0.6967670917510986,
        0.1342523843050003
      ],
      "min": [
        -7.301110744476318,
        -1.4433400630950928,
        -14.354748725891113
      ],
      "type": "VEC3"
    },
    {
      "bufferView": 2,
      "byteOffset": 64068,
      "componentType": 5126,
      "count": 1519,
      "max": [
        0.999935507774353,
        0.9999955892562866,
        0.9427358508110046
      ],
      "min": [
        -0.9999354481697083,
        -0.9999985098838806,
        -0.9987668991088867
      ],
      "type": "VEC3"
    },
    {
      "bufferView": 1,
      "byteOffset": 15280,
      "componentType": 5126,
      "count": 1519,
      "max": [
        1.0000001192092896,
        1.0000001192092896
      ],
      "min": [
        0.0,
        0.0
      ],
      "type": "VEC2"
    },
    {
      "bufferView": 0,
      "byteOffset": 45888,
      "componentType": 5125,
      "count": 5808,
      "type": "SCALAR"
    },
    {
      "bufferView": 2,
      "byteOffset": 82296,
      "componentType": 5126,
      "count": 3308,
      "max": [
        0.2689724862575531,
        0.016406524926424026,
        0.013181556947529316
      ],
      "min": [
        -0.27045753598213196,
        -0.0058465683832764626,
        -0.006799781695008278
      ],
      "type": "VEC3"
    },
    {
      "bufferView": 2,
      "byteOffset": 121992,
      "componentType": 5126,
      "count": 3308,
      "max": [
        1.0,
        0.9998985528945923,
        0.999334990978241
      ],
      "min": [
        -1.0,
        -0.9995720386505127,
        -0.9991396069526672
      ],
      "type": "VEC3"
    },
    {
      "bufferView": 1,
      "byteOffset": 27432,
      "componentType": 5126,
      "count": 3308,
      "max": [
        0.0,
        0.0
      ],
      "min": [
        0.0,
        0.0
      ],
      "type": "VEC2"
    },
    {
      "bufferView": 0,
      "byteOffset": 69120,
      "componentType": 5125,
      "count": 19848,
      "type": "SCALAR"
    },
    {
      "bufferView": 2,
      "byteOffset": 161688,
      "componentType": 5126,
      "count": 1820,
      "max": [
        0.26980066299438477,
        0.010857058688998222,
        0.0028784640599042177
      ],
      "min": [
        -0.2712857127189636,
        -0.0024093028623610735,
        -0.032496508210897446
      ],
      "type": "VEC3"
    },
    {
      "bufferView": 2,
      "byteOffset": 183528,
      "componentType": 5126,
      "count": 1820,
      "max": [
        0.9998555183410645,
        0.9994045495986938,
        0.9970374703407288
      ],
      "min": [
        -0.9998558163642883,
        -0.9976413249969482,
        -0.997564435005188
      ],
      "type": "VEC3"
    },
    {
      "bufferView": 1,
      "byteOffset": 53896,
      "componentType": 5126,
      "count": 1820,
      "max": [
        0.0,
        0.0
      ],
      "min": [
        0.0,
        0.0
      ],
      "type": "VEC2"
    },
    {
      "bufferView": 0,
      "byteOffset": 148512,
      "componentType": 5125,
      "count": 10944,
      "type": "SCALAR"
    },
    {
      "bufferView": 2,
      "byteOffset": 205368,
      "componentType": 5126,
      "count": 1672,
      "max": [
        0.2701890468597412,
        0.007331117056310177,
        -0.006508722901344299
      ],
      "min": [
        -0.2716740071773529,
        0.0028706686571240425,
        -0.026581354439258575
      ],
      "type": "VEC3"
    },
    {
      "bufferView": 2,
      "byteOffset": 225432,
      "componentType": 5126,
      "count": 1672,
      "max": [
        0.9982926249504089,
        0.9975650310516357,
        0.9918980598449707
      ],
      "min": [
        -0.9982965588569641,
        -0.9975656270980835,
        -0.9918994307518005
      ],
      "type": "VEC3"
    },
    {
      "bufferView": 1,
      "byteOffset": 68456,
      "componentType": 5126,
      "count": 1672,
      "max": [
        0.0,
        0.0
      ],
      "min": [
        0.0,
        0.0
      ],
      "type": "VEC2"
    },
    {
      "bufferView": 0,
      "byteOffset": 192288,
      "componentType": 5125,
      "count": 9984,
      "type": "SCALAR"
    },
    {
      "bufferView": 2,
      "byteOffset": 245496,
      "componentType": 5126,
      "count": 5412,
      "max": [
        0.24755822122097015,
        0.03046966716647148,
        0.04621278494596481
      ],
      "min": [
        -0.24755822122097015,
        -0.14227133989334106,
        0.01885952614247799
      ],
      "type": "VEC3"
    },
    {
      "bufferView": 2,
      "byteOffset": 310440,
      "componentType": 5126,
      "count": 5412,
      "max": [
        0.8569808006286621,
        0.7368787527084351,
        0.9999947547912598
      ],
      "min": [
        -0.8569808602333069,
        -0.7466311454772949,
        -0.9999948143959045
      ],
      "type": "VEC3"
    },
    {
      "bufferView": 1,
      "byteOffset": 81832,
      "componentType": 5126,
      "count": 5412,
      "max": [
        0.0,
        0.0
      ],
      "min": [
        0.0,
        0.0
      ],
      "type": "VEC2"
    },
    {
      "bufferView": 0,
      "byteOffset": 232224,
      "componentType": 5125,
      "count": 32448,
      "type": "SCALAR"
    }
  ],
  "asset": {
    "extras": {
      "author": "Incg5764 (https://sketchfab.com/incg5764)",
      "license": "CC-BY-4.0 (http://creativecommons.org/licenses/by/4.0/)",
      "source": "https://sketchfab.com/3d-models/plastic-sunglasses-d5417dcb97fb41b39f57fc8772a7ecab",
      "title": "Plastic Sunglasses"
    },
    "generator": "Sketchfab-14.1.2",
    "version": "2.0"
  },
  "bufferViews": [
    {
      "buffer": 0,
      "byteLength": 362016,
      "name": "floatBufferViews",
      "target": 34963
    },
    {
      "buffer": 0,
      "byteLength": 125128,
      "byteOffset": 362016,
      "byteStride": 8,
      "name": "floatBufferViews",
      "target": 34962
    },
    {
      "buffer": 0,
      "byteLength": 375384,
      "byteOffset": 487144,
      "byteStride": 12,
      "name": "floatBufferViews",
      "target": 34962
    }
  ],
  "buffers": [
    {
      "byteLength": 862528,
      "uri": "scene.bin"
    }
  ],
  "extensionsUsed": [
    "KHR_materials_transmission"
  ],
  "materials": [
    {
      "doubleSided": true,
      "name": "material",
      "pbrMetallicRoughness": {
        "baseColorFactor": [
          0.00636982,
          0.00636982,
          0.00636982,
          1.0
        ],
        "metallicFactor": 0.0,
        "roughnessFactor": 0.49307
      }
    },
    {
      "doubleSided": true,
      "name": "material_1",
      "pbrMetallicRoughness": {
        "baseColorFactor": [
          0.00489524,
          0.00489524,
          0.00489524,
          1.0
        ],
        "metallicFactor": 0.0,
        "roughnessFactor": 0.5
      }
    },
    {
      "doubleSided": true,
      "name": "material_2",
      "pbrMetallicRoughness": {
        "baseColorFactor": [
          0.8006510000000001,
          0.6651239999999995,
          0.583018,
          1.0
        ],
        "roughnessFactor": 0.800813
      }
    },
    {
      "alphaMode": "BLEND",
      "doubleSided": true,
      "extensions": {
        "KHR_materials_transmission": {
          "transmissionFactor": 0.8308566273725787
        }
      },
      "name": "material_3",
      "pbrMetallicRoughness": {
        "baseColorFactor": [
          1.0,
          1.0,
          1.0,
          0.25
        ],
        "roughnessFactor": 0.0
      }
    }
  ],
  "meshes": [
    {
      "name": "Object_0",
      "primitives": [
        {
          "attributes": {
            "NORMAL": 1,
            "POSITION": 0,
            "TEXCOORD_0": 2
          },
          "indices": 3,
          "material": 0,
          "mode": 4
        }
      ]
    },
    {
      "name": "Object_1",
      "primitives": [
        {
          "attributes": {
            "NORMAL": 5,
            "POSITION": 4,
            "TEXCOORD_0": 6
          },
          "indices": 7,
          "material": 1,
          "mode": 4
        }
      ]
    },
    {
      "name": "Object_2",
      "primitives": [
        {
          "attributes": {
            "NORMAL": 9,
            "POSITION": 8,
            "TEXCOORD_0": 10
          },
          "indices": 11,
          "material": 2,
          "mode": 4
        }
      ]
    },
    {
      "name": "Object_3",
      "primitives": [
        {
          "attributes": {
            "NORMAL": 13,
            "POSITION": 12,
            "TEXCOORD_0": 14
          },
          "indices": 15,
          "material": 2,
          "mode": 4
        }
      ]
    },
    {
      "name": "Object_4",
      "primitives": [
        {
          "attributes": {
            "NORMAL": 17,
            "POSITION": 16,
            "TEXCOORD_0": 18
          },
          "indices": 19,
          "material": 2,
          "mode": 4
        }
      ]
    },
    {
      "name": "Object_5",
      "primitives": [
        {
          "attributes": {
            "NORMAL": 21,
            "POSITION": 20,
            "TEXCOORD_0": 22
          },
          "indices": 23,
          "material": 3,
          "mode": 4
        }
      ]
    }
  ],
  "nodes": [
    {
      "children": [
        1
      ],
      "matrix": [
        1.0,
        0.0,
        0.0,
        0.0,
        0.0,
        2.220446049250313e-16,
        -1.0,
        0.0,
        0.0,
        1.0,
        2.220446049250313e-16,
        0.0,
        0.0,
        0.0,
        0.0,
        1.0
      ],
      "name": "Sketchfab_model"
    },
    {
      "children": [
        2
      ],
      "name": "root"
    },
    {
      "children": [
        3,
        5,
        7,
        9,
        11,
        13
      ],
      "matrix": [
        1.0,
        0.0,
        0.0,
        0.0,
        0.0,
        2.220446049250313e-16,
        1.0,
        0.0,
        0.0,
        -1.0,
        2.220446049250313e-16,
        0.0,
        0.0,
        0.0,
        0.0,
        1.0
      ],
      "name": "GLTF_SceneRootNode"
    },
    {
      "children": [
        4
      ],
      "matrix": [
        0.24532130360603333,
        0.0,
        0.0,
        0.0,
        0.0,
        0.24945996701717377,
        0.0,
        0.0,
        0.0,
        0.0,
        0.24945996701717377,
        0.0,
        0.0,
        0.0,
        0.0,
        1.0
      ],
      "name": "Circle_0"
    },
    {
      "mesh": 0,
      "name": "Object_4"
    },
    {
      "children": [
        6
      ],
      "matrix": [
        0.010036994703114033,
        0.0,
        0.0,
        0.0,
        0.0,
        0.01020632404834032,
        0.0,
        0.0,
        0.0,
        0.0,
        0.01020632404834032,
        0.0,
        0.0,
        0.0,
        0.0,
        1.0
      ],
      "name": "Plane.001_1"
    },
    {
      "mesh": 1,
      "name": "Object_6"
    },
    {
      "children": [
        8
      ],
      "matrix": [
        0.24532130360603333,
        0.0,
        0.0,
        0.0,
        0.0,
        0.3115518391132355,
        0.0,
        0.0,
        0.0,
        0.0,
        0.24980120360851288,
        0.0,
        0.0,
        0.0,
        0.0,
        1.0
      ],
      "name": "Circle.002_2"
    },
    {
      "mesh": 2,
      "name": "Object_8"
    },
    {
      "children": [
        10
      ],
      "matrix": [
        0.24532130360603333,
        0.0,
        0.0,
        0.0,
        0.0,
        0.3115518391132355,
        0.0,
        0.0,
        0.0,
        0.0,
        0.24980120360851288,
        0.0,
        0.0,
        0.0,
        0.0,
        1.0
      ],
      "name": "Circle.003_3"
    },
    {
      "mesh": 3,
      "name": "Object_10"
    },
    {
      "children": [
        12
      ],
      "matrix": [
        0.24532130360603333,
        0.0,
        0.0,
        0.0,
        0.0,
        0.24945996701717377,
        0.0,
        0.0,
        0.0,
        0.0,
        0.24945996701717377,
        0.0,
        0.0,
        0.0,
        0.0,
        1.0
      ],
      "name": "Circle.004_4"
    },
    {
      "mesh": 4,
      "name": "Object_12"
    },
    {
      "children": [
        14
      ],
      "matrix": [
        0.24532130360603333,
        0.0,
        0.0,
        0.0,
        0.0,
        0.24945996701717377,
        0.0,
        0.0,
        0.0,
        0.0,
        0.24945996701717377,
        0.0,
        0.0,
        0.0,
        0.0,
        1.0
      ],
      "name": "Circle.005_5"
    },
    {
      "mesh": 5,
      "name": "Object_14"
    }
  ],
  "scene": 0,
  "scenes": [
    {
      "name": "Sketchfab_Scene",
      "nodes": [
        0
      ]
    }
  ]
}
